<svg xmlns="http://www.w3.org/2000/svg" fill="none" viewBox="0 0 60 60" height="60" width="60">
<path fill="white" d="M13 13.3718C13 12.0619 14.0553 11 15.3571 11H43.6429C44.9447 11 46 12.0619 46 13.3718V45.6282C46 46.9381 44.9447 48 43.6429 48H15.3571C14.0553 48 13 46.9381 13 45.6282V13.3718ZM15.3571 12.5812C14.9232 12.5812 14.5714 12.9352 14.5714 13.3718V45.6282C14.5714 46.0648 14.9232 46.4188 15.3571 46.4188H43.6429C44.0768 46.4188 44.4286 46.0648 44.4286 45.6282V13.3718C44.4286 12.9352 44.0768 12.5812 43.6429 12.5812H15.3571Z" clip-rule="evenodd" fill-rule="evenodd"></path>
<path fill="white" d="M23.2143 16.0598C23.2143 16.4965 22.8625 16.8504 22.4286 16.8504C21.9946 16.8504 21.6429 16.4965 21.6429 16.0598C21.6429 15.6232 21.9946 15.2692 22.4286 15.2692C22.8625 15.2692 23.2143 15.6232 23.2143 16.0598Z"></path>
<path fill="white" d="M37.0429 16.0598C37.0429 16.4965 36.6911 16.8504 36.2571 16.8504C35.8232 16.8504 35.4714 16.4965 35.4714 16.0598C35.4714 15.6232 35.8232 15.2692 36.2571 15.2692C36.6911 15.2692 37.0429 15.6232 37.0429 16.0598Z"></path>
<path fill="white" d="M30.1286 16.0598C30.1286 16.4965 29.7768 16.8504 29.3429 16.8504C28.9089 16.8504 28.5571 16.4965 28.5571 16.0598C28.5571 15.6232 28.9089 15.2692 29.3429 15.2692C29.7768 15.2692 30.1286 15.6232 30.1286 16.0598Z"></path>
<path fill="white" d="M44.5857 20.3291H13.7857V18.7479H44.5857V20.3291Z" clip-rule="evenodd" fill-rule="evenodd"></path>
<path fill="white" d="M16.4571 23.6496C16.4571 23.2129 16.8089 22.859 17.2429 22.859H41.4429C41.8768 22.859 42.2286 23.2129 42.2286 23.6496C42.2286 24.0862 41.8768 24.4402 41.4429 24.4402H17.2429C16.8089 24.4402 16.4571 24.0862 16.4571 23.6496Z" clip-rule="evenodd" fill-rule="evenodd"></path>
<path fill="white" d="M19.4429 25.547C19.0089 25.547 18.6571 25.193 18.6571 24.7564V23.8077C18.6571 23.3711 19.0089 23.0171 19.4429 23.0171C19.8768 23.0171 20.2286 23.3711 20.2286 23.8077V24.7564C20.2286 25.193 19.8768 25.547 19.4429 25.547Z" clip-rule="evenodd" fill-rule="evenodd"></path>
<path fill="white" d="M39.2429 25.547C38.8089 25.547 38.4571 25.193 38.4571 24.7564V23.8077C38.4571 23.3711 38.8089 23.0171 39.2429 23.0171C39.6768 23.0171 40.0286 23.3711 40.0286 23.8077V24.7564C40.0286 25.193 39.6768 25.547 39.2429 25.547Z" clip-rule="evenodd" fill-rule="evenodd"></path>
<path fill="white" d="M16.7714 31.0812C16.7714 29.7713 17.8268 28.7094 19.1286 28.7094H39.5571C40.859 28.7094 41.9143 29.7713 41.9143 31.0812V40.8846C41.9143 42.1945 40.859 43.2564 39.5571 43.2564H19.1286C17.8268 43.2564 16.7714 42.1945 16.7714 40.8846V31.0812ZM19.1286 30.2906C18.6946 30.2906 18.3429 30.6446 18.3429 31.0812V40.8846C18.3429 41.3213 18.6946 41.6752 19.1286 41.6752H39.5571C39.9911 41.6752 40.3429 41.3213 40.3429 40.8846V31.0812C40.3429 30.6446 39.9911 30.2906 39.5571 30.2906H19.1286Z" clip-rule="evenodd" fill-rule="evenodd"></path>
</svg>
